<?xml version="1.0" encoding="UTF-8"?> <!-- Generator: Adobe Illustrator 25.0.0, SVG Export Plug-In . SVG Version: 6.00 Build 0) --> <svg xmlns="http://www.w3.org/2000/svg" xmlns:xlink="http://www.w3.org/1999/xlink" version="1.1" id="Capa_1" x="0px" y="0px" viewBox="0 0 393.33 132.24" style="enable-background:new 0 0 393.33 132.24;" xml:space="preserve"> <style type="text/css"> .st0{fill:#12953F;} .st1{fill:#EF841A;} .st2{fill:#FFFFFF;} </style> <g> <g> <g> <path class="st0" d="M138.42,13.38v4.3h-10.48v38.56h-13.15V17.68h-10.6v-4.3H138.42z"></path> <path class="st0" d="M160.49,13.38l11.95,42.86h-12.46l-2.57-9.32h-12.93l-2.7,9.32h-4.86l12.64-42.86H160.49z M145.72,42.69 h10.54l-5.08-19.01L145.72,42.69z"></path> <path class="st0" d="M175.2,56.24V13.38h19.08c9.81,0,14.72,3.51,14.72,10.54c0,4.96-2.98,8.15-8.94,9.57 c7.15,1.42,10.73,5.22,10.73,11.39c0,7.57-4.79,11.36-14.37,11.36H175.2z M187.59,32.08h3.86c3.56,0,5.33-2.64,5.33-7.91 c0-4.79-1.88-7.18-5.65-7.18h-3.55V32.08z M187.59,52.7h3.61c4.62,0,6.93-2.66,6.93-7.97c0-6.07-2.41-9.1-7.22-9.1h-3.33V52.7z"></path> <path class="st0" d="M228,13.38v38.56h17.6v4.3h-30V13.38H228z"></path> <path class="st0" d="M275.3,13.38v4.3h-15.34v12.99h12.93v4.3h-12.93v16.97h17.98v4.3h-30.37V13.38H275.3z"></path> <path class="st0" d="M281.89,56.24V13.38h18.39c4.79,0,8.62,1.02,11.48,3.06c2.87,2.04,4.3,4.74,4.3,8.11 c0,5.19-3.08,8.58-9.26,10.17c3.18,1.15,5.23,2.42,6.15,3.81c0.92,1.39,1.55,4.13,1.88,8.2c0.44,4.79,1.25,7.96,2.45,9.51h-13.49 c-0.86-1.97-1.29-4.46-1.29-7.47l-0.06-2.48l-0.06-3.23c0-4.92-1.99-7.37-5.96-7.37h-2.13v20.55H281.89z M294.29,32.15h2.51 c4.71,0,7.06-2.47,7.06-7.4c0-4.92-2.35-7.37-7.06-7.37h-2.51V32.15z"></path> <path class="st0" d="M339.97,12.66c12.47,0,18.7,7.39,18.7,22.18c0,14.75-6.34,22.12-19.01,22.12 c-12.74,0-19.11-7.54-19.11-22.62C320.55,19.89,327.02,12.66,339.97,12.66z M339.65,16.08c-2.36,0-3.96,1.3-4.8,3.89 c-0.84,2.59-1.25,7.55-1.25,14.87c0,7.28,0.42,12.22,1.25,14.81c0.84,2.59,2.44,3.89,4.8,3.89c2.3,0,3.87-1.3,4.71-3.89 c0.84-2.59,1.26-7.53,1.26-14.81c0-7.32-0.42-12.28-1.26-14.87C343.52,17.38,341.96,16.08,339.65,16.08z"></path> <path class="st0" d="M391.54,25.4l-5.8,1.1c0.27-1.17,0.41-2.13,0.41-2.89c0-5.02-3.02-7.53-9.07-7.53 c-4.75,0-7.12,1.74-7.12,5.21c0,2.57,2.65,4.78,7.94,6.62c10.29,3.51,15.44,8.74,15.44,15.69c0,4.02-1.43,7.26-4.3,9.73 c-2.87,2.47-6.7,3.7-11.51,3.7c-10.63,0-15.94-4.12-15.94-12.36c0-0.63,0.06-1.43,0.19-2.42l5.99-1.35 c-0.48,1.84-0.72,3.42-0.72,4.74c0,5.31,3.04,7.97,9.13,7.97c4.89,0,7.34-1.9,7.34-5.71c0-2.87-2.92-5.38-8.75-7.53 c-8.43-3.07-12.64-8.02-12.64-14.84c0-3.85,1.41-6.95,4.24-9.32c2.82-2.36,6.5-3.55,11.04-3.55 C386.82,12.66,391.54,16.91,391.54,25.4z"></path> </g> <g> <path class="st0" d="M123.18,98.66V120h-12.39V77.14h12.39v17.29h10.17V77.14h12.46V120h-12.46V98.66H123.18z"></path> <path class="st0" d="M165.6,77.14V120h-12.39V77.14H165.6z"></path> <path class="st0" d="M201.69,89.16l-5.8,1.1c0.27-1.17,0.41-2.13,0.41-2.89c0-5.02-3.02-7.53-9.07-7.53 c-4.75,0-7.12,1.74-7.12,5.21c0,2.57,2.65,4.78,7.94,6.62c10.29,3.51,15.44,8.74,15.44,15.69c0,4.02-1.43,7.26-4.3,9.73 c-2.87,2.47-6.7,3.7-11.51,3.7c-10.63,0-15.94-4.12-15.94-12.36c0-0.63,0.06-1.43,0.19-2.42l5.99-1.35 c-0.48,1.84-0.72,3.42-0.72,4.74c0,5.31,3.04,7.97,9.13,7.97c4.89,0,7.34-1.9,7.34-5.71c0-2.87-2.92-5.38-8.75-7.53 c-8.43-3.07-12.64-8.02-12.64-14.84c0-3.85,1.41-6.95,4.24-9.32c2.82-2.36,6.5-3.54,11.04-3.54 C196.98,76.42,201.69,80.67,201.69,89.16z"></path> <path class="st0" d="M209,120V77.14h18.45c10.48,0,15.72,4.19,15.72,12.58c0,8.49-5.83,12.74-17.48,12.74h-4.3V120H209z M221.4,98.54h2.76c4.54,0,6.81-3,6.81-9c0-5.6-2.27-8.41-6.81-8.41h-2.76V98.54z"></path> <path class="st0" d="M267.37,77.14L279.33,120h-12.46l-2.57-9.32h-12.93l-2.7,9.32h-4.86l12.64-42.86H267.37z M252.59,106.44 h10.54l-5.08-19.01L252.59,106.44z"></path> <path class="st0" d="M314.03,77.14V120h-9.51l-17.85-27.11V120h-4.17V77.14h7.81l19.55,29.3v-29.3H314.03z"></path> <path class="st0" d="M339.33,76.42c12.47,0,18.7,7.39,18.7,22.18c0,14.75-6.34,22.12-19.01,22.12 c-12.74,0-19.11-7.54-19.11-22.62C319.91,83.65,326.38,76.42,339.33,76.42z M339.01,79.84c-2.36,0-3.96,1.3-4.8,3.89 c-0.84,2.59-1.25,7.55-1.25,14.87c0,7.28,0.42,12.22,1.25,14.81c0.84,2.59,2.44,3.89,4.8,3.89c2.3,0,3.87-1.3,4.71-3.89 c0.84-2.59,1.25-7.53,1.25-14.81c0-7.32-0.42-12.28-1.25-14.87C342.88,81.14,341.31,79.84,339.01,79.84z"></path> <path class="st0" d="M391.5,89.16l-5.8,1.1c0.27-1.17,0.41-2.13,0.41-2.89c0-5.02-3.02-7.53-9.07-7.53 c-4.75,0-7.12,1.74-7.12,5.21c0,2.57,2.65,4.78,7.94,6.62c10.29,3.51,15.44,8.74,15.44,15.69c0,4.02-1.43,7.26-4.3,9.73 c-2.87,2.47-6.7,3.7-11.51,3.7c-10.63,0-15.94-4.12-15.94-12.36c0-0.63,0.06-1.43,0.19-2.42l5.99-1.35 c-0.48,1.84-0.72,3.42-0.72,4.74c0,5.31,3.04,7.97,9.13,7.97c4.89,0,7.34-1.9,7.34-5.71c0-2.87-2.92-5.38-8.75-7.53 c-8.43-3.07-12.64-8.02-12.64-14.84c0-3.85,1.41-6.95,4.24-9.32c2.82-2.36,6.5-3.54,11.04-3.54 C386.79,76.42,391.5,80.67,391.5,89.16z"></path> </g> </g> <g> <rect class="st1" width="95.61" height="132.24"></rect> <g> <polygon class="st0" points="62.01,37.2 62.01,63.6 88.4,37.2 "></polygon> <polygon class="st0" points="32.9,64.2 32.9,37.81 6.51,64.2 "></polygon> <polygon class="st0" points="34.97,35.79 34.97,99.2 59.82,124.06 59.82,10.93 34.96,35.79 "></polygon> </g> <path class="st2" d="M93.24,35.2H61.82V6.09L1.67,66.21h31.29v33.83l28.86,28.87V66.62L93.24,35.2z M62.01,37.2h26.4l-26.4,26.4 V37.2z M32.9,64.2H6.51l26.4-26.4V64.2z M59.82,124.06L34.97,99.2V35.79h-0.01l24.86-24.86V124.06z"></path> </g> </g> </svg> 